HIERARCHY
ROOT Hips
{
	OFFSET 60.340900 -6.998645 92.782303
	CHANNELS 6 Xposition Yposition Zposition Xrotation Yrotation Zrotation
	JOINT spine
	{
		OFFSET 0.000000 -0.429886 7.475601
		CHANNELS 3 Xrotation Yrotation Zrotation
		JOINT spine1
		{
			OFFSET 0.000000 -0.000002 9.923012
			CHANNELS 3 Xrotation Yrotation Zrotation
			JOINT spine2
			{
				OFFSET 0.000000 -0.000001 9.508041
				CHANNELS 3 Xrotation Yrotation Zrotation
				JOINT Neck
				{
					OFFSET 0.000000 -1.163844 24.411095
					CHANNELS 3 Xrotation Yrotation Zrotation
					JOINT Head
					{
						OFFSET 0.000000 -0.000001 7.375229
						CHANNELS 3 Xrotation Yrotation Zrotation
						End Site
						{
							OFFSET 0.000000 5.887407 17.852203
						}
					}
				}
				JOINT RightShoulder
				{
					OFFSET -4.003559 0.557467 10.267906
					CHANNELS 3 Xrotation Yrotation Zrotation
					JOINT RightArm
					{
						OFFSET 0.000000 -0.000002 13.467300
						CHANNELS 3 Xrotation Yrotation Zrotation
						JOINT RightArmRoll
						{
							OFFSET 0.000000 -0.000001 6.798584
							CHANNELS 3 Xrotation Yrotation Zrotation
							JOINT RightForeArm
							{
								OFFSET 0.000000 -0.000003 19.801804
								CHANNELS 3 Xrotation Yrotation Zrotation
								JOINT RightForeArmRoll
								{
									OFFSET 0.000000 -0.000001 7.629044
									CHANNELS 3 Xrotation Yrotation Zrotation
									JOINT RightHand
									{
										OFFSET 0.000000 -0.000002 15.309799
										CHANNELS 3 Xrotation Yrotation Zrotation
										End Site
										{
											OFFSET 0.000000 0.000000 0.100006
										}
									}
								}
							}
						}
					}
				}
				JOINT LeftShoulder
				{
					OFFSET 4.003559 0.557467 10.267906
					CHANNELS 3 Xrotation Yrotation Zrotation
					JOINT LeftArm
					{
						OFFSET 0.000000 -0.000002 13.467300
						CHANNELS 3 Xrotation Yrotation Zrotation
						JOINT LeftArmRoll
						{
							OFFSET 0.000000 -0.000001 6.798584
							CHANNELS 3 Xrotation Yrotation Zrotation
							JOINT LeftForeArm
							{
								OFFSET 0.000000 -0.000003 19.801804
								CHANNELS 3 Xrotation Yrotation Zrotation
								JOINT LeftForeArmRoll
								{
									OFFSET 0.000000 -0.000001 7.629044
									CHANNELS 3 Xrotation Yrotation Zrotation
									JOINT LeftHand
									{
										OFFSET 0.000000 -0.000002 15.309799
										CHANNELS 3 Xrotation Yrotation Zrotation
										End Site
										{
											OFFSET 0.000000 0.000000 0.100006
										}
									}
								}
							}
						}
					}
				}
			}
		}
	}
	JOINT RightUpLeg
	{
		OFFSET -6.626099 1.019270 -1.215050
		CHANNELS 3 Xrotation Yrotation Zrotation
		JOINT RightUpLegRoll
		{
			OFFSET 0.000000 -0.000003 17.951698
			CHANNELS 3 Xrotation Yrotation Zrotation
			JOINT RightLeg
			{
				OFFSET 0.000000 0.000003 -22.230400
				CHANNELS 3 Xrotation Yrotation Zrotation
				JOINT RightLegRoll
				{
					OFFSET 0.000000 -0.000003 22.303200
					CHANNELS 3 Xrotation Yrotation Zrotation
					JOINT RightFoot
					{
						OFFSET 0.000000 -0.000003 18.563599
						CHANNELS 3 Xrotation Yrotation Zrotation
						JOINT RightToeBase
						{
							OFFSET 0.000000 -0.000002 15.518295
							CHANNELS 3 Xrotation Yrotation Zrotation
							End Site
							{
								OFFSET 0.006577 0.866261 7.515381
							}
						}
					}
				}
			}
		}
	}
	JOINT LeftUpLeg
	{
		OFFSET 6.626102 1.019270 -1.215050
		CHANNELS 3 Xrotation Yrotation Zrotation
		JOINT LeftUpLegRoll
		{
			OFFSET 0.000000 -0.000003 17.951797
			CHANNELS 3 Xrotation Yrotation Zrotation
			JOINT LeftLeg
			{
				OFFSET 0.000000 -0.000004 22.230309
				CHANNELS 3 Xrotation Yrotation Zrotation
				JOINT LeftLegRoll
				{
					OFFSET 0.000000 -0.000004 22.509308
					CHANNELS 3 Xrotation Yrotation Zrotation
					JOINT LeftFoot
					{
						OFFSET 0.000000 -0.000003 18.357498
						CHANNELS 3 Xrotation Yrotation Zrotation
						JOINT LeftToeBase
						{
							OFFSET 0.000000 -0.000002 15.518295
							CHANNELS 3 Xrotation Yrotation Zrotation
							End Site
							{
								OFFSET -0.029480 0.866261 7.515396
							}
						}
					}
				}
			}
		}
	}
}
MOTION
Frames: 5
Frame Time: 0.041667
59.991005 -6.054527 92.883102 -11.096849 -1.460191 -4.109822 0.186914 0.089715 0.263493 4.377312 0.181314 0.520093 6.022361 0.187517 0.517858 5.266752 14.358154 -1.279898 6.442056 -14.006532 -0.673040 -4.059388 -55.048548 -4.407126 -42.367237 -145.381451 -74.196202 0.000002 -0.000003 -0.000006 81.018994 -1.406587 -2.366733 0.000001 0.000020 -3.000979 -5.000218 -7.998830 0.000140 -12.462465 75.692662 15.379588 -67.036155 127.816636 86.972548 0.000000 0.000020 -0.000003 81.199761 2.311340 3.442180 0.000002 -0.000004 3.004470 -5.000209 7.999363 -0.000088 -4.247413 -173.285328 3.590960 -179.999991 0.000005 -1.299001 150.521441 -0.674686 -1.376369 0.000000 -0.000003 0.512436 69.357388 6.935264 2.012711 28.530732 -7.174705 3.639919 5.745918 -174.630957 5.068890 -0.000004 -0.000005 -1.146571 -8.793599 4.181354 0.542354 -0.000005 0.000000 -0.106454 70.457841 -6.803480 -2.260770 25.456952 7.355613 -0.000010 
59.991104 -6.061334 92.905899 -11.099238 -1.457726 -4.117911 0.187207 0.090043 0.263424 4.378043 0.181115 0.520222 6.023092 0.187313 0.517977 5.265769 14.348911 -1.278849 6.442205 -13.983561 -0.674749 -4.103298 -55.010248 -4.456028 -42.401562 -145.392365 -74.023616 -0.000002 -0.000002 -0.000003 81.151479 -1.375127 -2.417480 0.000000 0.000020 -3.000981 -5.000221 -7.998834 0.000139 -12.457429 75.674951 15.373491 -67.113890 127.770969 86.838335 -0.000001 0.000021 -0.000003 81.206462 2.302510 3.443661 0.000002 -0.000005 3.004470 -5.000209 7.999362 -0.000090 -4.244121 -173.288292 3.588826 -179.999991 0.000005 -1.299002 150.521974 -0.671206 -1.375390 -0.000001 -0.000003 0.512502 69.354321 6.935266 2.012703 28.529616 -7.174658 3.642507 5.754756 -174.632036 5.069958 -0.000005 -0.000004 -1.146730 -8.787990 4.179292 0.541443 -0.000005 0.000000 -0.106439 70.462417 -6.803522 -2.260695 25.456952 7.355613 -0.000009 
59.979404 -6.069560 92.903801 -11.102226 -1.454797 -4.126656 0.187621 0.090344 0.263375 4.378932 0.180743 0.520428 6.023992 0.186936 0.518174 5.264793 14.339468 -1.277419 6.443169 -13.960166 -0.675977 -4.146660 -54.971145 -4.504193 -42.435064 -145.404783 -73.848852 -0.000003 -0.000000 -0.000005 81.281444 -1.345638 -2.466263 -0.000000 0.000021 -3.000981 -5.000216 -7.998833 0.000139 -12.452208 75.657773 15.367222 -67.187458 127.725548 86.697961 0.000002 0.000020 -0.000003 81.212240 2.293692 3.445464 0.000004 -0.000004 3.004471 -5.000210 7.999362 -0.000090 -4.239674 -173.291243 3.586347 -179.999991 0.000006 -1.299000 150.523504 -0.667731 -1.374399 -0.000000 -0.000003 0.512568 69.350927 6.935255 2.012714 28.528498 -7.174608 3.645168 5.763796 -174.634113 5.071225 -0.000005 -0.000004 -1.146951 -8.783185 4.176481 0.540496 -0.000005 0.000001 -0.106424 70.468038 -6.803483 -2.260744 25.456953 7.355612 -0.000010 
59.979603 -6.074774 92.890099 -11.105706 -1.451482 -4.135956 0.188135 0.090619 0.263342 4.379952 0.180229 0.520695 6.025002 0.186416 0.518432 5.263868 14.329527 -1.275620 6.444848 -13.936652 -0.676742 -4.189371 -54.931247 -4.551516 -42.467050 -145.419399 -73.672162 -0.000004 -0.000001 -0.000004 81.408874 -1.318013 -2.513212 0.000001 0.000020 -3.000979 -5.000216 -7.998835 0.000143 -12.447063 75.641299 15.361049 -67.259352 127.679800 86.555292 -0.000000 0.000020 -0.000004 81.217110 2.284954 3.447298 -0.000000 -0.000005 3.004469 -5.000207 7.999360 -0.000091 -4.234292 -173.295177 3.583646 -179.999991 0.000005 -1.299002 150.525908 -0.663394 -1.372911 -0.000000 -0.000003 0.512636 69.347238 6.935264 2.012647 28.527287 -7.174561 3.647875 5.773001 -174.636175 5.072744 -0.000005 -0.000004 -1.147210 -8.779006 4.173048 0.539519 -0.000005 0.000000 -0.106410 70.474308 -6.803522 -2.260667 25.456950 7.355613 -0.000010 
60.016102 -6.059563 92.889709 -11.109590 -1.447852 -4.145726 0.188715 0.090866 0.263318 4.381052 0.179605 0.521000 6.026101 0.185786 0.518729 5.263051 14.319381 -1.273513 6.447188 -13.913021 -0.677072 -4.231349 -54.890955 -4.597938 -42.497413 -145.436133 -73.494468 -0.000005 -0.000001 -0.000006 81.533430 -1.292123 -2.558425 0.000001 0.000018 -3.000980 -5.000218 -7.998839 0.000138 -12.442118 75.625323 15.355122 -67.328542 127.634270 86.409290 -0.000000 0.000021 -0.000003 81.220805 2.276416 3.448865 0.000002 -0.000004 3.004471 -5.000210 7.999357 -0.000089 -4.228207 -173.299125 3.580701 -179.999991 0.000005 -1.299000 150.529050 -0.659062 -1.371424 -0.000001 -0.000003 0.512708 69.343318 6.935266 2.012692 28.525976 -7.174523 3.650631 5.782340 -174.638252 5.074447 -0.000005 -0.000004 -1.147500 -8.775282 4.169165 0.538527 -0.000005 0.000000 -0.106397 70.481207 -6.803499 -2.260642 25.456952 7.355614 -0.000011 
